<?xml version="1.0" standalone="no"?>
<!DOCTYPE svg PUBLIC "-//W3C//DTD SVG 20010904//EN"
 "http://www.w3.org/TR/2001/REC-SVG-20010904/DTD/svg10.dtd">
<svg version="1.0" xmlns="http://www.w3.org/2000/svg"
 width="674.000000pt" height="674.000000pt" viewBox="0 0 674.000000 674.000000"
 preserveAspectRatio="xMidYMid meet">
<metadata>
Created by potrace 1.11, written by Peter Selinger 2001-2013
</metadata>
<g transform="translate(0.000000,674.000000) scale(0.100000,-0.100000)"
fill="#000000" stroke="none">
<path d="M747 6730 c-297 -35 -560 -236 -676 -515 -66 -157 -62 47 -59 -2880
l3 -2660 24 -70 c101 -300 319 -504 621 -581 73 -18 147 -19 2705 -19 2858 0
2681 -4 2836 56 242 93 425 293 506 554 l28 90 0 2655 0 2655 -23 85 c-81 306
-305 529 -617 613 l-80 22 -2600 1 c-1430 1 -2631 -2 -2668 -6z m5368 -153
c200 -71 346 -201 430 -382 70 -152 65 83 65 -2826 0 -2919 6 -2679 -70 -2834
-95 -195 -264 -332 -475 -385 -79 -20 -106 -20 -2720 -18 l-2640 3 -84 29
c-244 85 -425 292 -475 541 -15 72 -16 329 -14 2700 l3 2620 23 70 c44 131 89
203 186 301 105 104 203 161 333 193 76 19 138 20 2718 18 l2640 -2 80 -28z"/>
<path d="M4380 5219 c-234 -176 -278 -211 -450 -363 -360 -318 -630 -622 -794
-897 -42 -69 -85 -147 -97 -173 -11 -26 -26 -49 -34 -52 -13 -6 -742 381 -916
487 -140 84 -288 191 -369 267 -38 34 -72 62 -77 62 -11 0 -35 -166 -60 -410
-25 -242 -25 -861 0 -1055 91 -707 335 -1184 751 -1464 380 -257 864 -324
1516 -210 150 26 190 38 190 58 0 9 -29 135 -64 281 -35 146 -67 279 -71 297
-3 18 -36 72 -71 120 -220 297 -353 629 -419 1042 -8 52 -17 135 -20 185 l-5
91 15 -104 c41 -280 136 -547 279 -776 70 -113 166 -248 172 -243 2 2 -10 63
-26 135 -46 210 -63 346 -65 513 -1 138 -4 164 -29 240 -83 261 -106 549 -67
849 27 208 43 241 35 71 -7 -145 8 -386 36 -574 22 -140 51 -288 57 -282 2 1
21 84 42 182 92 418 214 743 366 968 103 155 107 145 15 -44 -209 -430 -294
-861 -276 -1405 6 -208 13 -265 30 -265 14 0 163 107 235 169 91 77 290 308
353 407 32 52 86 145 119 207 81 150 65 99 -26 -88 -43 -88 -117 -214 -178
-305 -145 -216 -254 -336 -451 -497 l-39 -31 12 -84 c21 -144 90 -424 148
-598 38 -112 120 -320 132 -333 19 -19 333 222 476 367 267 269 399 543 426
878 30 377 -31 639 -356 1543 -122 339 -187 607 -205 838 -5 73 -10 138 -10
145 0 6 -3 12 -7 12 -5 0 -105 -73 -223 -161z m-2183 -1641 c-3 -8 -6 -5 -6 6
-1 11 2 17 5 13 3 -3 4 -12 1 -19z m162 -404 c167 -338 464 -696 762 -920 36
-27 106 -96 156 -154 148 -173 376 -373 596 -524 53 -37 97 -70 97 -72 0 -8
-81 37 -241 132 l-156 93 -124 16 c-352 45 -665 168 -954 376 -60 43 -130 97
-155 120 l-45 41 45 -32 c188 -134 351 -220 527 -279 183 -61 473 -118 473
-93 0 5 -46 44 -102 88 -56 43 -172 149 -257 235 -149 148 -161 158 -271 216
-254 132 -414 245 -566 398 -108 109 -167 189 -73 99 79 -75 273 -225 359
-277 93 -57 285 -150 298 -146 5 2 -38 76 -97 165 -184 278 -313 530 -392 766
-55 165 -48 170 11 8 27 -74 76 -189 109 -256z"/>
</g>
</svg>
